{
  "extensionsUsed": [
    "KHR_lights_punctual"
  ],
  "accessors": [
    {
      "bufferView": 0,
      "componentType": 5126,
      "count": 1225,
      "type": "VEC3",
      "max": [
        1.5975528955459595,
        6.0856871604919434,
        1.583244800567627
      ],
      "min": [
        -1.5975528955459595,
        -6.0856871604919434,
        -1.583244800567627
      ]
    },
    {
      "bufferView": 1,
      "componentType": 5126,
      "count": 1225,
      "type": "VEC3",
      "max": [
        0.99998688697814941,
        0.99995684623718262,
        0.99998688697814941
      ],
      "min": [
        -0.999825656414032,
        -0.99994742870330811,
        -0.99998676776885986
      ]
    },
    {
      "bufferView": 2,
      "componentType": 5126,
      "count": 1225,
      "type": "VEC4",
      "max": [
        1.0,
        0.75235378742218018,
        1.0,
        1.0
      ],
      "min": [
        -1.0,
        -0.83424830436706543,
        -1.0,
        1.0
      ]
    },
    {
      "bufferView": 3,
      "componentType": 5126,
      "count": 1225,
      "type": "VEC2",
      "max": [
        0.99134337902069092,
        0.99070453643798828
      ],
      "min": [
        0.0086566321551799774,
        0.0092954039573669434
      ]
    },
    {
      "bufferView": 4,
      "componentType": 5123,
      "count": 2997,
      "type": "SCALAR",
      "max": [
        1224.0
      ],
      "min": [
        0.0
      ]
    }
  ],
  "asset": {
    "version": "2.0"
  },
  "buffers": [
    {
      "uri": "beer_variant.bin",
      "byteLength": 64794
    }
  ],
  "bufferViews": [
    {
      "buffer": 0,
      "byteLength": 14700
    },
    {
      "buffer": 0,
      "byteOffset": 14700,
      "byteLength": 14700
    },
    {
      "buffer": 0,
      "byteOffset": 29400,
      "byteLength": 19600
    },
    {
      "buffer": 0,
      "byteOffset": 49000,
      "byteLength": 9800
    },
    {
      "buffer": 0,
      "byteOffset": 58800,
      "byteLength": 5994
    }
  ],
  "images": [
    {
      "uri": "BeerBottle.png",
      "name": "BeerBottle"
    }
  ],
  "materials": [
    {
      "pbrMetallicRoughness": {
        "baseColorTexture": {
          "index": 0
        },
        "metallicFactor": 0.24599996209144592,
        "roughnessFactor": 0.22299998998641968
      },
      "name": "BeerBottle"
    }
  ],
  "meshes": [
    {
      "primitives": [
        {
          "attributes": {
            "POSITION": 0,
            "NORMAL": 1,
            "TANGENT": 2,
            "TEXCOORD_0": 3
          },
          "indices": 4,
          "material": 0
        }
      ],
      "name": "Beer"
    }
  ],
  "nodes": [
    {
      "children": [
        1
      ],
      "name": "Beer Variant"
    },
    {
      "mesh": 0,
      "rotation": [
        0.0,
        -1.0,
        0.0,
        0.0
      ],
      "scale": [
        0.02,
        0.02,
        0.02
      ],
      "translation": [
        0.0,
        0.025,
        0.0
      ],
      "name": "Beer"
    }
  ],
  "samplers": [
    {}
  ],
  "scene": 0,
  "scenes": [
    {
      "nodes": [
        0
      ],
      "name": "beer_variant"
    }
  ],
  "textures": [
    {
      "sampler": 0,
      "source": 0,
      "name": "BeerBottle"
    }
  ]
}