{
  "extensionsUsed": [
    "KHR_lights_punctual"
  ],
  "accessors": [
    {
      "bufferView": 0,
      "componentType": 5126,
      "count": 226,
      "type": "VEC3",
      "max": [
        3.6570308208465576,
        4.8000340461730957,
        1.5283199548721313
      ],
      "min": [
        -3.6570308208465576,
        -4.8000340461730957,
        -1.5283199548721313
      ]
    },
    {
      "bufferView": 1,
      "componentType": 5126,
      "count": 226,
      "type": "VEC3",
      "max": [
        0.99887913465499878,
        0.99993395805358887,
        0.99940907955169678
      ],
      "min": [
        -0.99996161460876465,
        -0.99999141693115234,
        -0.99924647808074951
      ]
    },
    {
      "bufferView": 2,
      "componentType": 5126,
      "count": 226,
      "type": "VEC4",
      "max": [
        0.99996721744537354,
        0.99997782707214355,
        0.7458539605140686,
        1.0
      ],
      "min": [
        -0.99999332427978516,
        -0.99992036819458008,
        -0.80384939908981323,
        1.0
      ]
    },
    {
      "bufferView": 3,
      "componentType": 5126,
      "count": 226,
      "type": "VEC2",
      "max": [
        1.0,
        1.0
      ],
      "min": [
        0.0,
        0.0
      ]
    },
    {
      "bufferView": 4,
      "componentType": 5126,
      "count": 226,
      "type": "VEC2",
      "max": [
        1.0,
        1.0
      ],
      "min": [
        0.0,
        0.0
      ]
    },
    {
      "bufferView": 5,
      "componentType": 5121,
      "count": 912,
      "type": "SCALAR",
      "max": [
        225.0
      ],
      "min": [
        0.0
      ]
    }
  ],
  "asset": {
    "version": "2.0"
  },
  "buffers": [
    {
      "uri": "chips_variant_variant.bin",
      "byteLength": 13568
    }
  ],
  "bufferViews": [
    {
      "buffer": 0,
      "byteLength": 2712
    },
    {
      "buffer": 0,
      "byteOffset": 2712,
      "byteLength": 2712
    },
    {
      "buffer": 0,
      "byteOffset": 5424,
      "byteLength": 3616
    },
    {
      "buffer": 0,
      "byteOffset": 9040,
      "byteLength": 1808
    },
    {
      "buffer": 0,
      "byteOffset": 10848,
      "byteLength": 1808
    },
    {
      "buffer": 0,
      "byteOffset": 12656,
      "byteLength": 912
    }
  ],
  "images": [
    {
      "uri": "Chips.png",
      "name": "Chips"
    }
  ],
  "materials": [
    {
      "pbrMetallicRoughness": {
        "baseColorTexture": {
          "index": 0
        },
        "metallicFactor": 0.653999924659729,
        "roughnessFactor": 0.87299999594688416
      },
      "name": "Chips"
    }
  ],
  "meshes": [
    {
      "primitives": [
        {
          "attributes": {
            "POSITION": 0,
            "NORMAL": 1,
            "TANGENT": 2,
            "TEXCOORD_0": 3,
            "TEXCOORD_1": 4
          },
          "indices": 5,
          "material": 0
        }
      ],
      "name": "Chips"
    }
  ],
  "nodes": [
    {
      "children": [
        1
      ],
      "name": "Chips Variant Variant"
    },
    {
      "mesh": 0,
      "rotation": [
        0.0,
        -0.7071068,
        0.0,
        0.7071068
      ],
      "scale": [
        0.02,
        0.02,
        0.02
      ],
      "translation": [
        0.0,
        0.025,
        0.0
      ],
      "name": "Chips"
    }
  ],
  "samplers": [
    {}
  ],
  "scene": 0,
  "scenes": [
    {
      "nodes": [
        0
      ],
      "name": "chips_variant_variant"
    }
  ],
  "textures": [
    {
      "sampler": 0,
      "source": 0,
      "name": "Chips"
    }
  ]
}