{
  "extensionsUsed": [
    "KHR_lights_punctual"
  ],
  "accessors": [
    {
      "bufferView": 0,
      "componentType": 5126,
      "count": 515,
      "type": "VEC3",
      "max": [
        1.7140117883682251,
        3.3920109272003174,
        1.7016305923461914
      ],
      "min": [
        -1.7140117883682251,
        -3.3920109272003174,
        -1.7016305923461914
      ]
    },
    {
      "bufferView": 1,
      "componentType": 5126,
      "count": 515,
      "type": "VEC3",
      "max": [
        0.99895119667053223,
        1.0,
        0.99174785614013672
      ],
      "min": [
        -0.99895119667053223,
        -0.9997754693031311,
        -0.99174785614013672
      ]
    },
    {
      "bufferView": 2,
      "componentType": 5126,
      "count": 515,
      "type": "VEC4",
      "max": [
        0.99174785614013672,
        0.94883722066879272,
        0.99895131587982178,
        1.0
      ],
      "min": [
        -0.99174785614013672,
        -0.94884473085403442,
        -0.99895131587982178,
        -1.0
      ]
    },
    {
      "bufferView": 3,
      "componentType": 5126,
      "count": 515,
      "type": "VEC2",
      "max": [
        0.97299998998641968,
        0.97850000858306885
      ],
      "min": [
        0.04349999874830246,
        0.010999977588653564
      ]
    },
    {
      "bufferView": 4,
      "componentType": 5123,
      "count": 1932,
      "type": "SCALAR",
      "max": [
        514.0
      ],
      "min": [
        0.0
      ]
    }
  ],
  "asset": {
    "version": "2.0"
  },
  "buffers": [
    {
      "uri": "energydrink.bin",
      "byteLength": 28584
    }
  ],
  "bufferViews": [
    {
      "buffer": 0,
      "byteLength": 6180
    },
    {
      "buffer": 0,
      "byteOffset": 6180,
      "byteLength": 6180
    },
    {
      "buffer": 0,
      "byteOffset": 12360,
      "byteLength": 8240
    },
    {
      "buffer": 0,
      "byteOffset": 20600,
      "byteLength": 4120
    },
    {
      "buffer": 0,
      "byteOffset": 24720,
      "byteLength": 3864
    }
  ],
  "images": [
    {
      "uri": "EnergyDrink.png",
      "name": "EnergyDrink"
    }
  ],
  "materials": [
    {
      "pbrMetallicRoughness": {
        "baseColorTexture": {
          "index": 0
        },
        "metallicFactor": 0.0,
        "roughnessFactor": 0.5
      },
      "name": "EnergyDrink"
    }
  ],
  "meshes": [
    {
      "primitives": [
        {
          "attributes": {
            "POSITION": 0,
            "NORMAL": 1,
            "TANGENT": 2,
            "TEXCOORD_0": 3
          },
          "indices": 4,
          "material": 0
        }
      ],
      "name": "EnergyDrink"
    }
  ],
  "nodes": [
    {
      "children": [
        1
      ],
      "name": "EnergyDrink"
    },
    {
      "mesh": 0,
      "scale": [
        0.02,
        0.02,
        0.02
      ],
      "translation": [
        0.0,
        0.025,
        0.0
      ],
      "name": "EnergyDrink"
    }
  ],
  "samplers": [
    {}
  ],
  "scene": 0,
  "scenes": [
    {
      "nodes": [
        0
      ],
      "name": "energydrink"
    }
  ],
  "textures": [
    {
      "sampler": 0,
      "source": 0,
      "name": "EnergyDrink"
    }
  ]
}